<?xml version="1.0" encoding="utf-8"?>
<!-- Generator: Adobe Illustrator 23.1.0, SVG Export Plug-In . SVG Version: 6.00 Build 0)  -->
<svg version="1.1" id="レイヤー_1" xmlns="http://www.w3.org/2000/svg" xmlns:xlink="http://www.w3.org/1999/xlink" x="0px"
	 y="0px" viewBox="0 0 333 61.9" style="enable-background:new 0 0 333 61.9;" xml:space="preserve">
<style type="text/css">
	.st0{fill:#221815;}
</style>
<path class="st0" d="M74.8,49.9V12.7c0-4.5,1.4-5,5.2-5h2.4V3.1H57.8v4.6h2.6c3.5,0,5.1,1.2,5.1,5v37.2c0,3.8-2,5.4-5.6,5.4h-2.4
	v4.6h24.9v-4.6h-2.3C76.5,55.3,74.8,54.4,74.8,49.9"/>
<path class="st0" d="M53,46.1h-4.4c-3.3,7.7-9.3,10.7-15.9,10.7c-11.3,0-20.3-10.8-20.3-25.3c0-15.8,6.5-26,19.2-26
	c10.5,0,14.7,5.4,16.4,12.1h4c-0.5-4-1.2-11-1.2-12.5C47.3,4.4,40.8,1,31,1C13.7,1,1.1,12.9,1.1,31.5c0,18.2,14.4,29.8,29.7,29.8
	c7,0,14-1.6,19.9-6C51,53.9,52,49.6,53,46.1"/>
<path class="st0" d="M125,7.7c5.1,0,6.5,3.5,6.5,7.3v3h4.3V3.1h-48V18h4.3v-3.1c0-3.8,1.4-7.3,6.5-7.3h8.7v42.2
	c0,3.8-2.3,5.4-5.8,5.4h-2.6v4.6h26v-4.6h-2.5c-3.5,0-5.8-1.5-5.8-5.4V7.7H125z"/>
<path class="st0" d="M216.6,44.4h-4.2v1c0,4.7-1.3,9.8-11.4,9.8h-17.5l32.6-47.5V3.1h-43v15.4h4.3v-1.9c0-4.9,2.3-8.9,8.8-8.9
	c4,0,18.2,0,18.2,0l-32.3,47.6v4.6h44.5V44.4z"/>
<path class="st0" d="M229.7,11.7v38.9c0,4.1-2.7,4.7-5.2,4.7h-1.4v4.6H269V44.4h-4.1v1.5c0,5-2.5,9.4-8.7,9.4h-16.9V33h10.2
	c4.1,0,5,3.5,5,5.9v2.4h4.4V20h-4.4v1.9c0,2.4-0.9,5.9-5,5.9h-10.2V7.7h16.1c8.1,0,8.3,6.7,8.3,9.2v1.3h4.3v-15h-45.1v4.6h1
	C227.7,7.7,229.7,8.2,229.7,11.7"/>
<path class="st0" d="M330.4,7.7h1.2V3.1h-20.2v4.6h1.3c4.5,0,6.1,1.5,6.1,5.4v31.5L290.4,3.1h-14.9v4.6h1.4c2.8,0,4.9,1.1,4.9,5.5
	v37.1c0.2,2.5-1.6,4.7-4.1,5c-0.2,0-0.5,0-0.7,0h-1.9v4.5h19.3v-4.6h-1.8c-2,0-5.2-0.5-5.2-5V15.6l30.3,44.2h6.6V13.1
	C324.4,9.2,325.9,7.7,330.4,7.7"/>
<path class="st0" d="M165.8,55.3h-2.3c-3.8,0-5.5-0.9-5.5-5.4V12.7c0-4.5,1.4-5,5.2-5h2.4V3.1h-24.5v4.6h2.6c3.5,0,5.1,1.2,5.1,5
	v37.2c0,3.8-2,5.4-5.5,5.4h-2.4v4.6h24.9L165.8,55.3z"/>
</svg>
